<?xml version="1.0" encoding="utf-8"?>
<!-- Generator: Adobe Illustrator 21.0.0, SVG Export Plug-In . SVG Version: 6.00 Build 0)  -->
<svg version="1.1" id="图层_1" xmlns="http://www.w3.org/2000/svg" xmlns:xlink="http://www.w3.org/1999/xlink" x="0px" y="0px"
	 viewBox="0 0 566.9 566.9" style="enable-background:new 0 0 566.9 566.9;" xml:space="preserve">
<style type="text/css">
	.st0{fill:#E6E6E6;}
	.st1{fill:#DCDDDD;}
	.st2{fill:#D90514;}
	.st3{fill:#A00E15;}
	.st4{fill:#ED6D34;}
	.st5{fill:#D3341F;}
	.st6{fill:#E60012;}
	.st7{fill:#F2F2F3;}
	.st8{fill:#F7F8F8;}
	.st9{fill:#E9EAEA;}
	.st10{fill:#BDBEBE;}
</style>
<g>
	<path class="st0" d="M273.3,178.6l-75.6-27.5c-3-1-8.7-1.2-11.5,4.6c0,0,2.1-2.7,5-3.2c2.5-0.5,4.2,0,6.8,1l72.9,26.5L273.3,178.6z
		 M218.4,251.5l-2,1l54.8,33.2l2.3-1.2L218.4,251.5z"/>
	<path class="st1" d="M273.3,178.6l-2.4,1.5l0,48l2.5,1.5L273.3,178.6z M213.5,200.5l3,52l2-1l-2.5-49.8L213.5,200.5z M271.2,285.7
		v38.5l2.2,1.7l0.1-41.5L271.2,285.7z"/>
	<polygon class="st2" points="247.1,216.7 240.9,218.8 271,233.9 309,220 304.9,218.2 273.4,229.5 270.9,228.1 	"/>
	<polygon class="st3" points="271.3,280 242.2,262.7 240.9,218.8 271,233.9 	"/>
	<polygon class="st4" points="308.9,222.6 273.4,235.6 271,233.9 309,220 	"/>
	<polygon class="st5" points="273.2,279 271.3,280 271,233.9 273.4,235.6 	"/>
	<polygon class="st6" points="307.5,263.7 273.2,279 273.4,235.6 308.9,222.6 	"/>
	<path class="st7" d="M310.6,168.5l-79.8-24.7c0,0-0.7-0.2-1.5-0.2c-0.9,0-1.6,0.1-1.6,0.1l-29.3,5.6c-0.4,0.1-2.8,0.5-3.6,0.6
		c-0.9,0.2-3.5,1-3.5,1c2.6-0.7,3.6-0.5,6.1,0c0.7,0.2,5,1.8,5.8,2.1l70,25.4L310.6,168.5z M271.3,280l-29.1-17.3l-0.6-19.9
		l-23.2,8.7l55.1,33l33.8-15.3l-5.4-3L271.3,280z M352,141.9c-0.7-0.2-1.4-0.3-2.1-0.1l-29,7l33,8.6l30.1-8.1L352,141.9z
		 M309.6,199.9l-0.5,16.8l-2.8,1l8.9,3.7l34.9-13.2L319,196.7L309.6,199.9z"/>
	<path class="st8" d="M384,149.3l-30.1,8.1l2.2,1.6l28-7.7L384,149.3z M315.2,221.3l2.3,1.6l34.9-13.3l-2.3-1.5L315.2,221.3z"/>
	<path class="st1" d="M353.8,157.4l-3.7,50.8l2.3,1.5L356,159L353.8,157.4z M313.9,262.2l2.2-0.9l1.4-38.4l-2.3-1.6L313.9,262.2z
		 M344.2,290.3l2.2-1.2l2.9-42.9l-2,0.9L344.2,290.3z"/>
	<path class="st9" d="M234.8,210.6l-18.9-8.9l2.5,49.8l23.2-8.7l-0.7-24l6.3-2.1L234.8,210.6z M273.4,326l32.6-16.8l1.2-40
		l-33.8,15.3L273.4,326z M273.4,229.5l35.7-12.9l1.5-48.1l-37.3,10.1L273.4,229.5z M356,159l-3.6,50.7l-34.9,13.3l-1.4,38.4
		l33.2-15.1l-2.9,42.9l25.2-13.3L384,151.2L356,159z"/>
	<path class="st10" d="M216.4,252.5l-3-52l57.4,27.5l0-48L196.2,153c-1.5-0.6-6.6-2-10.4,3.2c-1.1,1.6-3.1,7.6-2.9,14.1l6.3,76.5
		c0.3,5.4,2.6,14,5.9,19.5c1,1.8,4,8.1,10.7,12.8l65.3,45.2v-38.5L216.4,252.5z M320.8,148.9l-1.8,47.9l31.1,11.4l3.7-50.8
		L320.8,148.9z M304.9,218.2l4.1,1.9l-1.3,38.8l6.2,3.3l1.3-40.9l-8.9-3.7L304.9,218.2z M315.7,275.1l28.5,15.2l3.1-43.2l-31.2,14.2
		L315.7,275.1z"/>
</g>
<g>
	<path class="st6" d="M122.5,385.8c-1.8,3.6-4.2,6.3-7.4,8.2c-3.2,1.9-6.8,2.9-10.9,2.9c-3.1,0-5.9-0.6-8.5-1.8
		c-2.6-1.2-4.8-2.9-6.9-5.2c-1.7-1.9-3-4.1-4-6.6c-0.9-2.4-1.3-5.1-1.3-7.9c0-2.8,0.5-5.5,1.6-8.1c1.1-2.5,2.7-4.8,4.8-7
		c2-1.9,4.2-3.4,6.6-4.4c2.4-1,5-1.5,7.8-1.5c4.2,0,7.9,1,11,3c3.2,2,5.5,4.8,7.2,8.4h-7c-1.3-1.8-2.9-3.2-4.8-4
		c-1.9-1-4.1-1.4-6.5-1.4c-1.9,0-3.8,0.4-5.5,1.1c-1.8,0.7-3.3,1.8-4.6,3.2c-1.4,1.5-2.5,3.1-3.3,5.1c-0.8,1.9-1.2,3.8-1.2,5.8
		c0,2.2,0.3,4.2,1,6.1c0.7,1.9,1.7,3.5,3.1,4.9c1.4,1.5,3,2.6,4.8,3.4c1.8,0.8,3.7,1.2,5.6,1.2c2.3,0,4.4-0.4,6.3-1.3
		c1.9-0.9,3.5-2.2,4.6-3.9H122.5z"/>
	<path class="st6" d="M140.7,396h-5.9v-40.9h5.9v17.3h16.6v-17.3h5.9V396h-5.9v-17.7h-16.6V396z"/>
	<path class="st6" d="M181.1,384.2l-4.6,11.9h-6.2l16-40.9h5.8l15.9,40.9h-6.5l-4.5-11.9H181.1z M194.8,378.4l-5.8-15.6l-5.9,15.6
		H194.8z"/>
	<path class="st6" d="M222.3,396h-6v-40.9h6.1l20,31l-0.3-31h5.8V396h-5.6l-20.4-31.9L222.3,396z"/>
	<path class="st6" d="M274.6,375.4h25.3c-0.3,6.4-2.3,11.6-6.2,15.5c-3.9,4-8.8,6-14.7,6c-3.1,0-5.9-0.6-8.5-1.8
		c-2.6-1.2-4.9-2.9-7-5.2c-1.8-1.9-3.1-4.1-4-6.6c-0.9-2.4-1.3-5.1-1.3-7.9c0-2.8,0.5-5.5,1.6-8.1c1.1-2.5,2.7-4.8,4.8-6.9
		c2-2,4.2-3.5,6.7-4.5c2.5-1,5.2-1.4,8.2-1.4c4.1,0,7.8,0.9,10.9,2.9c3.1,2,5.5,4.7,7.1,8.2h-7.3c-1.4-1.7-3-3-4.8-3.9
		c-1.9-0.9-4-1.3-6.3-1.3c-1.9,0-3.8,0.4-5.5,1.1c-1.8,0.7-3.3,1.8-4.7,3.2c-1.4,1.5-2.5,3.1-3.3,5.1c-0.8,1.9-1.2,3.8-1.2,5.8
		c0,2.2,0.3,4.2,1.1,6.1c0.7,1.9,1.7,3.5,3.1,4.9c1.4,1.5,3,2.6,4.8,3.4c1.8,0.8,3.7,1.2,5.6,1.2c3.1,0,5.8-0.8,8.2-2.5
		c2.4-1.6,4.4-4.1,5.9-7.3h-18.6V375.4z"/>
	<path class="st6" d="M315.5,396h-5.9v-40.9h5.9v17.3h16.6v-17.3h5.9V396h-5.9v-17.7h-16.6V396z"/>
	<path class="st6" d="M348.5,375.3c0-2.8,0.5-5.5,1.6-8.1c1.1-2.5,2.7-4.8,4.8-6.9c2-1.9,4.2-3.4,6.6-4.4c2.4-1,5-1.5,7.8-1.5
		c2.9,0,5.6,0.5,8,1.5c2.4,1,4.6,2.5,6.7,4.5c2.1,2,3.7,4.3,4.7,6.8c1,2.6,1.6,5.3,1.6,8.2c0,2.9-0.5,5.6-1.4,8
		c-0.9,2.4-2.2,4.6-4,6.6c-2.2,2.3-4.5,3.9-7.1,5.2c-2.6,1.2-5.4,1.8-8.5,1.8c-3.1,0-5.9-0.6-8.5-1.8c-2.6-1.2-4.9-2.9-7-5.2
		c-1.7-1.9-3-4.1-3.9-6.6C349,380.8,348.5,378.1,348.5,375.3z M354.8,375.4c0,2.2,0.4,4.2,1.1,6.1c0.7,1.9,1.8,3.5,3.1,4.9
		c1.4,1.5,3,2.6,4.9,3.4c1.8,0.8,3.7,1.2,5.6,1.2c4.2,0,7.7-1.5,10.6-4.5c2.8-3,4.2-6.7,4.2-11.2c0-1.9-0.4-3.7-1-5.4
		c-0.7-1.8-1.7-3.3-3-4.7c-1.6-1.7-3.2-2.9-5-3.7c-1.7-0.8-3.7-1.2-5.8-1.2c-1.9,0-3.7,0.4-5.4,1.1c-1.7,0.7-3.3,1.8-4.7,3.2
		c-1.4,1.5-2.5,3.1-3.3,5.1C355.2,371.4,354.8,373.4,354.8,375.4z"/>
	<path class="st6" d="M405.9,396h-5.9v-40.9h6.1l20,31l-0.3-31h5.8V396H426l-20.5-31.9L405.9,396z"/>
	<path class="st6" d="M458.2,375.4h25.3c-0.3,6.4-2.3,11.6-6.2,15.5c-3.9,4-8.8,6-14.7,6c-3.1,0-5.9-0.6-8.5-1.8
		c-2.6-1.2-4.9-2.9-7-5.2c-1.8-1.9-3.1-4.1-4-6.6c-0.9-2.4-1.3-5.1-1.3-7.9c0-2.8,0.5-5.5,1.6-8.1c1.1-2.5,2.6-4.8,4.7-6.9
		c2-2,4.2-3.5,6.7-4.5c2.5-1,5.2-1.4,8.2-1.4c4.2,0,7.8,0.9,10.9,2.9c3.2,2,5.5,4.7,7.1,8.2h-7.3c-1.3-1.7-3-3-4.8-3.9
		c-1.9-0.9-3.9-1.3-6.3-1.3c-1.9,0-3.8,0.4-5.5,1.1c-1.7,0.7-3.3,1.8-4.6,3.2c-1.4,1.5-2.5,3.1-3.3,5.1c-0.8,1.9-1.2,3.8-1.2,5.8
		c0,2.2,0.4,4.2,1.1,6.1c0.7,1.9,1.7,3.5,3.1,4.9c1.4,1.5,3,2.6,4.8,3.4c1.8,0.8,3.7,1.2,5.6,1.2c3.1,0,5.9-0.8,8.2-2.5
		c2.4-1.6,4.4-4.1,5.9-7.3h-18.6V375.4z"/>
</g>
</svg>
